<?xml version="1.0" standalone="no"?>
<!DOCTYPE svg PUBLIC "-//W3C//DTD SVG 20010904//EN"
 "http://www.w3.org/TR/2001/REC-SVG-20010904/DTD/svg10.dtd">
<svg version="1.0" xmlns="http://www.w3.org/2000/svg"
 width="700.000000pt" height="700.000000pt" viewBox="0 0 700.000000 700.000000"
 preserveAspectRatio="xMidYMid meet">
<metadata>
Created by potrace 1.14, written by Peter Selinger 2001-2017
</metadata>
<g transform="translate(0.000000,700.000000) scale(0.100000,-0.100000)"
fill="#000000" stroke="none">
<path d="M0 3500 l0 -3500 3500 0 3500 0 0 3500 0 3500 -3500 0 -3500 0 0
-3500z m1080 2739 c35 -15 305 -280 1233 -1207 l1187 -1187 1188 1187 c927
927 1197 1192 1232 1207 114 51 251 1 313 -114 l22 -40 0 -2585 0 -2585 -22
-40 c-28 -52 -68 -89 -123 -114 -45 -21 -51 -21 -2610 -21 -2559 0 -2565 0
-2610 21 -55 25 -95 62 -123 114 l-22 40 -3 2570 c-2 2365 -1 2573 14 2614 49
130 200 196 324 140z"/>
<path d="M1230 4580 l0 -830 837 0 838 0 -830 830 c-456 457 -833 830 -837
830 -5 0 -8 -373 -8 -830z"/>
<path d="M4752 4407 l-1002 -1002 2 -866 3 -866 1007 966 1007 966 1 903 c0
496 -3 902 -8 902 -4 0 -458 -451 -1010 -1003z"/>
<path d="M1230 2240 l0 -1010 1010 0 1010 0 0 1010 0 1010 -1010 0 -1010 0 0
-1010z"/>
<path d="M4888 2077 l-877 -842 876 -3 c482 -1 878 -1 880 1 2 2 2 382 1 845
l-3 841 -877 -842z"/>
</g>
</svg>
