<svg version="1.1" id="Layer_1" height="1em" width="1em" xmlns="http://www.w3.org/2000/svg" xmlns:xlink="http://www.w3.org/1999/xlink" x="0px" y="0px" viewBox="0 0 46.7 46.1" style="enable-background:new 0 0 46.7 46.1;" xml:space="preserve">
 <style type="text/css">
  .st0{fill-rule:evenodd;clip-rule:evenodd;fill:#E80D8C;}
	.st1{fill-rule:evenodd;clip-rule:evenodd;fill:#ED6CA5;}
	.st2{fill-rule:evenodd;clip-rule:evenodd;fill:#8C2E87;}
	.st3{fill-rule:evenodd;clip-rule:evenodd;fill:#E62966;}
 </style>
 <g id="M001-Header">
  <g id="M001-D" transform="translate(-169.000000, -51.000000)">
   <g id="Multipart-logo" transform="translate(165.000000, 51.000000)">
    <g id="final-logo" transform="translate(112.500000, 26.500000) rotate(-90.000000) translate(-112.500000, -26.500000) translate(85.000000, -82.000000)">
     <g id="star" transform="translate(7.537607, 0.683886)">
      <polygon id="Fill-20" class="st0" points="28.1,22.7 34.6,16.1 42.3,36.6 					">
      </polygon>
      <polygon id="Fill-21" class="st0" points="18.7,22.6 12.2,29.2 4.6,8.8 					">
      </polygon>
      <polygon id="Fill-22" class="st1" points="26.7,26.1 35.9,26.1 27,46 					">
      </polygon>
      <polygon id="Fill-23" class="st1" points="19.8,-0.7 10.9,19.3 20.1,19.3 					">
      </polygon>
      <polygon id="Fill-24" class="st2" points="23.4,27.4 29.9,34 9.7,41.8 					">
      </polygon>
      <polygon id="Fill-25" class="st2" points="23.4,17.9 16.9,11.3 37.1,3.6 					">
      </polygon>
      <polygon id="Fill-26" class="st3" points="20.1,26 20.1,35.3 0.4,26.3 					">
      </polygon>
      <polygon id="Fill-27" class="st3" points="46.5,19 26.8,10 26.8,19.3 					">
      </polygon>
     </g>
    </g>
   </g>
  </g>
 </g>
</svg>